<svg xmlns="http://www.w3.org/2000/svg" xmlns:xlink="http://www.w3.org/1999/xlink" version="1.1" x="0px" y="0px" viewBox="-399.5 300.5 24 30" enable-background="new -399.5 300.5 24 24" xml:space="preserve"><g><circle cx="-391.5" cy="308.5" r="1"/><circle cx="-383.5" cy="308.5" r="1"/><circle cx="-387.5" cy="309.5" r="1"/><polygon points="-387.5,300.5 -399.5,305.5 -399.5,306.5 -387.5,302.5 -375.5,306.5 -375.5,305.5  "/><path d="M-378,311.5h-3.5v-1c0-0.553-0.448-1-1-1h-1h-1c-0.552,0-1,0.447-1,1v1c0-0.553-0.448-1-1-1h-1h-1c-0.552,0-1,0.447-1,1v-1   c0-0.553-0.448-1-1-1h-1h-1c-0.552,0-1,0.447-1,1v1h-3.5c-0.276,0-0.5,0.224-0.5,0.5s0.224,0.5,0.5,0.5h19   c0.276,0,0.5-0.224,0.5-0.5S-377.724,311.5-378,311.5z"/><circle cx="-391.5" cy="314.5" r="1"/><circle cx="-383.5" cy="314.5" r="1"/><circle cx="-387.5" cy="315.5" r="1"/><path d="M-378,317.5h-3.5v-1c0-0.553-0.448-1-1-1h-1h-1c-0.552,0-1,0.447-1,1v1c0-0.553-0.448-1-1-1h-1h-1c-0.552,0-1,0.447-1,1v-1   c0-0.553-0.448-1-1-1h-1h-1c-0.552,0-1,0.447-1,1v1h-3.5c-0.276,0-0.5,0.224-0.5,0.5s0.224,0.5,0.5,0.5h19   c0.276,0,0.5-0.224,0.5-0.5S-377.724,317.5-378,317.5z"/><circle cx="-391.5" cy="320.5" r="1"/><circle cx="-383.5" cy="320.5" r="1"/><circle cx="-387.5" cy="321.5" r="1"/><path d="M-378,323.5h-3.5v-1c0-0.553-0.448-1-1-1h-1h-1c-0.552,0-1,0.447-1,1v1c0-0.553-0.448-1-1-1h-1h-1c-0.552,0-1,0.447-1,1v-1   c0-0.553-0.448-1-1-1h-1h-1c-0.552,0-1,0.447-1,1v1h-3.5c-0.276,0-0.5,0.224-0.5,0.5s0.224,0.5,0.5,0.5h19   c0.276,0,0.5-0.224,0.5-0.5S-377.724,323.5-378,323.5z"/></g><text x="-399.5" y="339.5" fill="#000000" font-size="5px" font-weight="bold" font-family="'Helvetica Neue', Helvetica, Arial-Unicode, Arial, Sans-serif">Created by Rflor</text><text x="-399.5" y="344.5" fill="#000000" font-size="5px" font-weight="bold" font-family="'Helvetica Neue', Helvetica, Arial-Unicode, Arial, Sans-serif">from the Noun Project</text></svg>